<?xml version="1.0" standalone="no"?><!DOCTYPE svg PUBLIC "-//W3C//DTD SVG 20010904//EN" "http://www.w3.org/TR/2001/REC-SVG-20010904/DTD/svg10.dtd"><svg xmlns="http://www.w3.org/2000/svg" version="1.0" width="400.000000pt" height="400.000000pt" viewBox="0 0 400.000000 400.000000" preserveAspectRatio="xMidYMid meet">

<g transform="translate(0.000000,400.000000) scale(0.100000,-0.100000)" fill="#742323" stroke="none">
<path d="M472 3980 c-223 -59 -395 -232 -452 -456 -19 -75 -20 -116 -20 -1518 0 -1607 -4 -1514 71 -1664 77 -157 228 -277 405 -322 75 -19 116 -20 1518 -20 1607 0 1514 -4 1664 71 162 79 290 245 327 424 22 105 22 2905 0 3010 -37 179 -165 345 -327 424 -150 75 -57 71 -1668 70 -1389 0 -1448 -1 -1518 -19z m3029 -321 c71 -33 125 -87 158 -158 l26 -56 0 -1445 0 -1445 -26 -56 c-33 -71 -87 -125 -158 -158 l-56 -26 -1445 0 -1445 0 -56 26 c-71 33 -125 87 -158 158 l-26 56 -3 1424 c-3 1565 -6 1477 58 1572 36 55 91 96 163 120 49 18 126 18 1482 16 l1430 -2 56 -26z"/>
<path d="M2146 3489 c-43 -5 -100 -15 -127 -24 -161 -54 -337 -251 -384 -431 -11 -42 -15 -110 -15 -251 l0 -193 -157 0 c-252 0 -263 -12 -263 -273 0 -265 5 -270 253 -275 l167 -4 0 -729 0 -729 34 -38 34 -37 262 -3 c249 -3 263 -2 295 18 18 11 37 28 42 38 4 9 10 346 13 747 l5 730 200 5 c294 7 295 8 295 275 0 134 -3 174 -16 202 -31 64 -45 67 -274 73 l-205 5 1 75 c2 139 48 236 131 275 27 13 71 19 155 23 194 8 208 26 208 269 0 179 -9 212 -71 245 -31 17 -57 18 -269 16 -129 -1 -270 -5 -314 -9z"/>
</g>
</svg>