<svg version="1.1" xmlns="http://www.w3.org/2000/svg" xmlns:xlink="http://www.w3.org/1999/xlink" width="834.000000pt" height="299.000000pt" viewBox="0,0,256,91.77344"><g fill="#742323" fill-rule="nonzero" stroke="none" stroke-width="1" stroke-linecap="butt" stroke-linejoin="miter" stroke-miterlimit="10" stroke-dasharray="" stroke-dashoffset="0" font-family="none" font-weight="none" font-size="none" text-anchor="none" style="mix-blend-mode: normal"><g transform="translate(0.15348,-1.68091) scale(0.30695,0.30695)"><g transform="translate(0,299) scale(0.1,-0.1)"><path d="M6806,2820c-168,-19 -313,-58 -416,-110c-190,-97 -312,-241 -361,-426c-17,-67 -20,-108 -20,-259c1,-209 -10,-310 -46,-406c-20,-55 -34,-76 -72,-106c-25,-20 -54,-45 -64,-55c-10,-10 -23,-18 -29,-18c-7,0 12,-12 41,-26c59,-30 88,-67 126,-164c33,-85 45,-190 44,-400c0,-145 3,-188 20,-252c64,-246 231,-403 521,-492c146,-44 209,-51 465,-51c262,0 327,7 575,61c210,45 490,126 490,140c0,3 -8,3 -17,0c-25,-8 -407,-56 -443,-56h-30v504v503l77,7c42,3 192,6 335,6h258v225v225h-330h-330v505v505l38,-5c20,-3 111,-14 202,-25c91,-11 181,-22 200,-25c19,-3 -38,20 -127,50c-172,58 -377,105 -570,130c-144,19 -430,27 -537,15zM7140,2185v-515h-546h-546l6,23c23,75 46,213 51,305c9,150 30,244 77,334c79,153 229,259 444,314c120,30 286,51 417,53l97,1zM5859,1436c9,-11 6,-12 -15,-8c-19,3 -22,7 -12,13c16,11 14,11 27,-5zM7140,690v-520h-22c-84,2 -300,21 -377,35c-271,47 -460,158 -553,325c-51,93 -67,156 -79,315c-9,121 -32,267 -55,343l-6,22h546h546z"></path><path d="M3070,2800c-276,-20 -485,-80 -666,-190c-86,-53 -122,-84 -201,-174c-95,-107 -158,-253 -178,-413l-7,-53h339h339l17,72c58,240 262,350 595,318c127,-12 191,-31 253,-76c91,-66 129,-154 129,-298c0,-98 -24,-154 -84,-198c-106,-78 -209,-103 -641,-153c-178,-21 -407,-66 -528,-105c-106,-34 -241,-110 -305,-173c-60,-58 -141,-189 -163,-261c-46,-151 -45,-383 2,-528c47,-145 167,-293 299,-371c78,-45 255,-102 363,-117c262,-34 580,15 804,125c86,43 129,71 194,130c88,82 99,83 99,13c0,-36 22,-157 35,-190c6,-16 25,-18 181,-18h174v1234v1234l-97,50c-172,88 -319,122 -608,142c-165,11 -191,11 -345,0zM3676,954c-26,-152 -94,-264 -209,-345c-101,-71 -171,-90 -342,-96c-279,-9 -425,56 -486,216c-29,77 -24,234 9,302c71,145 199,210 512,259c329,50 428,76 490,129l35,29l3,-206c2,-144 -2,-231 -12,-288z"></path><path d="M5515,2756c-166,-38 -312,-116 -433,-231c-89,-84 -139,-151 -191,-252c-26,-52 -36,-63 -56,-63h-25v245v245h-320h-320v-1300v-1300h339h340l4,683c4,737 5,745 61,915c33,97 109,216 179,277c73,64 205,130 299,149c82,17 290,21 386,7l52,-7v312c0,239 -3,315 -12,321c-23,14 -239,13 -303,-1z"></path><path d="M70,2728c1,-7 8,-31 16,-53c8,-22 62,-177 119,-345c57,-168 142,-417 190,-555c48,-137 126,-367 175,-510c49,-143 135,-393 190,-555c56,-162 123,-357 148,-433l47,-137l389,2l389,3l83,240l83,240l-6,145c-11,296 52,471 228,634l61,56l74,222c41,123 74,226 74,230c0,5 -82,8 -181,8h-182l7,75c7,80 41,207 75,288c58,135 196,284 343,370c53,32 112,64 130,72c30,13 2,14 -274,15h-307l-36,-117c-20,-65 -58,-188 -85,-273c-27,-85 -78,-249 -114,-365c-128,-422 -219,-714 -272,-883c-71,-223 -77,-225 -135,-39c-22,72 -56,179 -74,237c-32,99 -67,211 -275,890c-48,157 -102,330 -120,385c-17,55 -36,115 -42,133l-10,32h-354c-277,0 -354,-3 -354,-12z"></path></g></g></g></svg>