<?xml version="1.0" standalone="no"?>
<!DOCTYPE svg PUBLIC "-//W3C//DTD SVG 20010904//EN"
 "http://www.w3.org/TR/2001/REC-SVG-20010904/DTD/svg10.dtd">
<svg version="1.0" xmlns="http://www.w3.org/2000/svg"
 width="834.000000pt" height="299.000000pt" viewBox="0 0 834.000000 299.000000"
 preserveAspectRatio="xMidYMid meet">

<g transform="translate(0.000000,299.000000) scale(0.100000,-0.100000)"
fill="#000000" stroke="none">
<path d="M6806 2820 c-168 -19 -313 -58 -416 -110 -190 -97 -312 -241 -361
-426 -17 -67 -20 -108 -20 -259 1 -209 -10 -310 -46 -406 -20 -55 -34 -76 -72
-106 -25 -20 -54 -45 -64 -55 -10 -10 -23 -18 -29 -18 -7 0 12 -12 41 -26 59
-30 88 -67 126 -164 33 -85 45 -190 44 -400 0 -145 3 -188 20 -252 64 -246
231 -403 521 -492 146 -44 209 -51 465 -51 262 0 327 7 575 61 210 45 490 126
490 140 0 3 -8 3 -17 0 -25 -8 -407 -56 -443 -56 l-30 0 0 504 0 503 77 7 c42
3 192 6 335 6 l258 0 0 225 0 225 -330 0 -330 0 0 505 0 505 38 -5 c20 -3 111
-14 202 -25 91 -11 181 -22 200 -25 19 -3 -38 20 -127 50 -172 58 -377 105
-570 130 -144 19 -430 27 -537 15z m334 -635 l0 -515 -546 0 -546 0 6 23 c23
75 46 213 51 305 9 150 30 244 77 334 79 153 229 259 444 314 120 30 286 51
417 53 l97 1 0 -515z m-1281 -749 c9 -11 6 -12 -15 -8 -19 3 -22 7 -12 13 16
11 14 11 27 -5z m1281 -746 l0 -520 -22 0 c-84 2 -300 21 -377 35 -271 47
-460 158 -553 325 -51 93 -67 156 -79 315 -9 121 -32 267 -55 343 l-6 22 546
0 546 0 0 -520z"/>
<path d="M3070 2800 c-276 -20 -485 -80 -666 -190 -86 -53 -122 -84 -201 -174
-95 -107 -158 -253 -178 -413 l-7 -53 339 0 339 0 17 72 c58 240 262 350 595
318 127 -12 191 -31 253 -76 91 -66 129 -154 129 -298 0 -98 -24 -154 -84
-198 -106 -78 -209 -103 -641 -153 -178 -21 -407 -66 -528 -105 -106 -34 -241
-110 -305 -173 -60 -58 -141 -189 -163 -261 -46 -151 -45 -383 2 -528 47 -145
167 -293 299 -371 78 -45 255 -102 363 -117 262 -34 580 15 804 125 86 43 129
71 194 130 88 82 99 83 99 13 0 -36 22 -157 35 -190 6 -16 25 -18 181 -18
l174 0 0 1234 0 1234 -97 50 c-172 88 -319 122 -608 142 -165 11 -191 11 -345
0z m606 -1846 c-26 -152 -94 -264 -209 -345 -101 -71 -171 -90 -342 -96 -279
-9 -425 56 -486 216 -29 77 -24 234 9 302 71 145 199 210 512 259 329 50 428
76 490 129 l35 29 3 -206 c2 -144 -2 -231 -12 -288z"/>
<path d="M5515 2756 c-166 -38 -312 -116 -433 -231 -89 -84 -139 -151 -191
-252 -26 -52 -36 -63 -56 -63 l-25 0 0 245 0 245 -320 0 -320 0 0 -1300 0
-1300 339 0 340 0 4 683 c4 737 5 745 61 915 33 97 109 216 179 277 73 64 205
130 299 149 82 17 290 21 386 7 l52 -7 0 312 c0 239 -3 315 -12 321 -23 14
-239 13 -303 -1z"/>
<path d="M70 2728 c1 -7 8 -31 16 -53 8 -22 62 -177 119 -345 57 -168 142
-417 190 -555 48 -137 126 -367 175 -510 49 -143 135 -393 190 -555 56 -162
123 -357 148 -433 l47 -137 389 2 389 3 83 240 83 240 -6 145 c-11 296 52 471
228 634 l61 56 74 222 c41 123 74 226 74 230 0 5 -82 8 -181 8 l-182 0 7 75
c7 80 41 207 75 288 58 135 196 284 343 370 53 32 112 64 130 72 30 13 2 14
-274 15 l-307 0 -36 -117 c-20 -65 -58 -188 -85 -273 -27 -85 -78 -249 -114
-365 -128 -422 -219 -714 -272 -883 -71 -223 -77 -225 -135 -39 -22 72 -56
179 -74 237 -32 99 -67 211 -275 890 -48 157 -102 330 -120 385 -17 55 -36
115 -42 133 l-10 32 -354 0 c-277 0 -354 -3 -354 -12z"/>
</g>
</svg>
